<?xml version="1.0" encoding="utf-8"?>
<!-- Generator: Adobe Illustrator 16.0.4, SVG Export Plug-In . SVG Version: 6.00 Build 0)  -->
<!DOCTYPE svg PUBLIC "-//W3C//DTD SVG 1.1 Tiny//EN" "http://www.w3.org/Graphics/SVG/1.1/DTD/svg11-tiny.dtd">
<svg version="1.1" baseProfile="tiny" id="Layer_1" xmlns="http://www.w3.org/2000/svg" xmlns:xlink="http://www.w3.org/1999/xlink"
	 x="0px" y="0px" width="249.126px" height="165.191px" viewBox="0 0 249.126 165.191" overflow="visible" xml:space="preserve">
<g>
	<polygon fill="#E44D26" points="85.003,164.563 37.612,34.904 167.757,0.091 191.431,136.085 142.087,165.101 	"/>
	<polygon fill="#F16529" points="139.144,153.796 179.011,130.339 158.775,14.123 105.586,28.352 	"/>
	<g>
		<path fill="#EFEFEF" d="M229.654,67.17l6.064,20.864l-46.424,13.117c0,0,0,27.922-22.529,39.022
			c-22.527,11.101-40.027,1.688-40.027,1.688l-2.802-8.074l33.417-9.086l7.396-28.6L143.22,74.925l-30.948,9.36l-2.687-7.345
			c0,0,14.46-31.959,57.186-13.782c0,0,13.463,8.401,16.482,15.81L229.654,67.17z"/>
		<polygon fill="#EFEFEF" points="235.718,65.603 243.115,63.472 249.066,84.778 241.324,87.126 		"/>
		<polygon fill="#BCBCBC" points="238.324,64.662 243.115,63.472 249.066,84.778 241.324,87.126 239.296,79.992 242.386,78.783 		
			"/>
		<path fill="#BCBCBC" d="M224.535,68.475l5.119-1.305l6.064,20.864l-46.424,13.117c0,0-0.5,24.363-16.656,35.395
			c-16.129,11.023-34.307,10.691-45.906,5.316l-1.293-3.723c0,0,31.568,7.422,47.199-16.297c9.426-15.637,9.26-26.911,9.26-26.911
			l46.584-12.611L224.535,68.475z"/>
		<polygon fill="#BCBCBC" points="109.579,76.927 136.828,69.019 143.208,74.912 112.266,84.272 		"/>
		<path fill="#EFEFEF" d="M13.516,91.714l5.47,21.024l46.586-12.477c0,0,14.294,23.98,39.336,21.983
			c25.049-1.996,35.254-19.034,35.254-19.034l-1.727-8.368l-33.354,9.296L84.088,83.364l7.658-29.228l31.384-7.793l-1.453-7.69
			c0,0-28.772-20.059-56.188,17.416c0,0-7.256,14.102-6.072,22.01L13.516,91.714z"/>
		<polygon fill="#EFEFEF" points="7.508,93.474 0.06,95.425 5.851,116.769 13.708,114.83 		"/>
		<polygon fill="#BCBCBC" points="4.789,93.991 0.06,95.425 5.851,116.769 13.708,114.83 11.807,107.657 8.519,108.202 		"/>
		<path fill="#BCBCBC" d="M18.596,90.216l-5.08,1.498l5.47,21.024l46.586-12.477c0,0,12.905,20.666,32.426,21.882
			c19.502,1.203,34.941-8.369,42.164-18.933l-0.787-3.858c0,0-23.334,22.535-48.907,10.154
			c-16.098-8.611-21.716-18.395-21.716-18.395l-46.483,13.014L18.596,90.216z"/>
		<polygon fill="#BCBCBC" points="121.677,38.66 94.229,45.8 91.753,54.137 123.136,46.344 		"/>
	</g>
</g>
</svg>
